<svg width="162" height="163" xmlns="http://www.w3.org/2000/svg" xmlns:xlink="http://www.w3.org/1999/xlink" xml:space="preserve" overflow="hidden"><defs><clipPath id="clip0"><rect x="148" y="291" width="162" height="163"/></clipPath></defs><g clip-path="url(#clip0)" transform="translate(-148 -291)"><path d="M76.2007 150.188C82.9507 99.5625 111.638 54 143.701 43.875L143.701 37.125C109.951 43.875 54.2632 84.375 23.8883 150.188Z" transform="matrix(1 0 0 1.00617 148 291)"/><path d="M142.73 108.675 142.73 94.5 136.067 94.5 136.067 102.262 122.737 89.4375 122.737 89.4375 87.75 123.188 91.4979 126.394 122.737 96.3562 122.737 96.3562 153.976 126.394 157.726 123.188 142.73 108.675 142.73 108.675Z" transform="matrix(1 0 0 1.00617 148 291)"/><path d="M97.7467 125.128 97.7467 150.188 117.739 150.188 117.739 129.094 127.735 129.094 127.735 150.188 147.729 150.188 147.729 125.128 122.737 101.081 97.7467 125.128ZM112.742 139.219 102.745 139.219 102.745 129.094 112.742 129.094 112.742 139.219ZM132.734 129.094 142.73 129.094 142.73 139.219 132.734 139.219 132.734 129.094Z" transform="matrix(1 0 0 1.00617 148 291)"/><path d="M52.8997 55.3787 52.8997 43.1713 47.1623 43.1713 47.1623 49.8555 35.6839 38.8125 35.6839 38.8125 5.55525 67.8746 8.78344 70.6354 35.6839 44.7711 35.6839 44.7711 62.5843 70.6354 65.8125 67.8746 52.8997 55.3787 52.8997 55.3787Z" transform="matrix(1 0 0 1.00617 148 291)"/><path d="M14.1649 69.5469 14.1649 91.125 31.3875 91.125 31.3875 72.9607 39.9938 72.9607 39.9938 91.125 57.2063 91.125 57.2063 69.5469 35.6839 48.8396 14.1649 69.5469ZM27.0759 81.6801 18.4697 81.6801 18.4697 72.9607 27.0759 72.9607 27.0759 81.675ZM44.2884 72.9607 52.8947 72.9607 52.8947 81.675 44.2884 81.675 44.2884 72.9607Z" transform="matrix(1 0 0 1.00617 148 291)"/><path d="M103.483 22.4151 103.483 13.3599 99.225 13.3599 99.225 18.3195 90.7099 10.125 90.7099 10.125 68.3556 31.6879 70.7518 33.7365 90.7099 14.5446 90.7099 14.5446 110.668 33.7365 113.062 31.6879 103.483 22.4151 103.483 22.4151Z" transform="matrix(1 0 0 1.00617 148 291)"/><path d="M74.7428 32.9282 74.7428 48.9375 87.5154 48.9375 87.5154 35.4611 93.9026 35.4611 93.9026 48.9375 106.675 48.9375 106.675 32.9282 90.7099 17.5635 74.7428 32.9282ZM84.3227 41.9293 77.9355 41.9293 77.9355 35.4611 84.3227 35.4611 84.3227 41.9293ZM97.0954 35.4611 103.483 35.4611 103.483 41.9293 97.0954 41.9293 97.0954 35.4611Z" transform="matrix(1 0 0 1.00617 148 291)"/></g></svg>